<svg xmlns="http://www.w3.org/2000/svg" viewBox="0 0 720 220" fill="none">
  <defs>
    <linearGradient id="sheetBack" x1="20" y1="14" x2="192" y2="192" gradientUnits="userSpaceOnUse">
      <stop offset="0" stop-color="#1e2d5e"/>
      <stop offset="1" stop-color="#152248"/>
    </linearGradient>
    <linearGradient id="sheetFront" x1="34" y1="24" x2="184" y2="190" gradientUnits="userSpaceOnUse">
      <stop offset="0" stop-color="#1a2a5c"/>
      <stop offset="1" stop-color="#111e42"/>
    </linearGradient>
    <linearGradient id="spine" x1="110" y1="34" x2="110" y2="172" gradientUnits="userSpaceOnUse">
      <stop offset="0" stop-color="#9baefa"/>
      <stop offset="1" stop-color="#6b8bfa"/>
    </linearGradient>
    <linearGradient id="titleGrad" x1="262" y1="58" x2="498" y2="146" gradientUnits="userSpaceOnUse">
      <stop offset="0" stop-color="#dce6ff"/>
      <stop offset="1" stop-color="#a8befd"/>
    </linearGradient>
    <filter id="backShadow" x="12" y="18" width="204" height="182" filterUnits="userSpaceOnUse">
      <feDropShadow dx="0" dy="10" stdDeviation="12" flood-color="#4f6ef7" flood-opacity="0.24"/>
    </filter>
    <filter id="frontShadow" x="18" y="18" width="192" height="178" filterUnits="userSpaceOnUse">
      <feDropShadow dx="0" dy="5" stdDeviation="7" flood-color="#4f6ef7" flood-opacity="0.18"/>
    </filter>
  </defs>

  <g>
    <g filter="url(#backShadow)">
      <path d="M38 32H126C143.67 32 158 46.33 158 64V138C158 155.67 143.67 170 126 170H38C20.33 170 6 155.67 6 138V64C6 46.33 20.33 32 38 32Z" fill="url(#sheetBack)"/>
    </g>
    <g filter="url(#frontShadow)">
      <path d="M46 26H138C154.02 26 167 38.98 167 55V145C167 161.02 154.02 174 138 174H46C29.98 174 17 161.02 17 145V55C17 38.98 29.98 26 46 26Z" fill="url(#sheetFront)"/>
      <path d="M46 26H138C154.02 26 167 38.98 167 55V145C167 161.02 154.02 174 138 174H46C29.98 174 17 161.02 17 145V55C17 38.98 29.98 26 46 26Z" stroke="#6b8bfa" stroke-opacity=".28"/>
    </g>

    <path d="M92 38H128" stroke="#6b8bfa" stroke-opacity=".22" stroke-width="1.4" stroke-linecap="round"/>
    <path d="M92 46H120" stroke="#6b8bfa" stroke-opacity=".16" stroke-width="1.4" stroke-linecap="round"/>
    <path d="M92 140H140" stroke="#9baefa" stroke-opacity=".36" stroke-width="1.2" stroke-linecap="round"/>
    <text x="92" y="152" text-anchor="middle" font-family="serif" font-size="12" letter-spacing="4" fill="#9baefa" fill-opacity=".78">READER</text>

    <path d="M92 40V160" stroke="url(#spine)" stroke-width="2.5" stroke-linecap="round"/>
    <path d="M93.5 44V158" stroke="#c8d6ff" stroke-width=".8" stroke-linecap="round" opacity=".4"/>

    <path d="M44 58H80" stroke="#8aa0f8" stroke-opacity=".18" stroke-width="1.5" stroke-linecap="round"/>
    <path d="M44 66H74" stroke="#8aa0f8" stroke-opacity=".13" stroke-width="1.5" stroke-linecap="round"/>
    <path d="M104 58H140" stroke="#8aa0f8" stroke-opacity=".20" stroke-width="1.5" stroke-linecap="round"/>
    <path d="M104 66H132" stroke="#8aa0f8" stroke-opacity=".13" stroke-width="1.5" stroke-linecap="round"/>
    <text x="62" y="114" text-anchor="middle" font-family="serif" font-size="52" font-weight="700" fill="#c5d6ff">Z</text>
    <path d="M104 96H136" stroke="#6b8bfa" stroke-opacity=".28" stroke-width="1.8" stroke-linecap="round"/>
    <path d="M104 106H130" stroke="#6b8bfa" stroke-opacity=".20" stroke-width="1.8" stroke-linecap="round"/>
    <path d="M104 124H138" stroke="#6b8bfa" stroke-opacity=".24" stroke-width="1.8" stroke-linecap="round"/>
  </g>

  <path d="M228 154H548" stroke="#6b8bfa" stroke-opacity=".24" stroke-width="1.2" stroke-linecap="round"/>
  <circle cx="228" cy="154" r="2.4" fill="#9baefa" fill-opacity=".52"/>
  <circle cx="548" cy="154" r="2.4" fill="#9baefa" fill-opacity=".52"/>

  <text x="390" y="102" text-anchor="middle" font-family="serif" font-size="56" font-weight="600" fill="url(#titleGrad)" letter-spacing="1.5">Z Reader</text>
  <text x="390" y="138" text-anchor="middle" font-family="system-ui, -apple-system, sans-serif" font-size="14" font-weight="500" letter-spacing="4" fill="#8ba0d8" fill-opacity=".82">A QUIETER DIGITAL LIBRARY</text>
</svg>
