<svg xmlns="http://www.w3.org/2000/svg" viewBox="0 0 720 220" fill="none">
  <defs>
    <linearGradient id="markBgDark" x1="24" y1="28" x2="174" y2="176" gradientUnits="userSpaceOnUse">
      <stop offset="0" stop-color="#243a82"/>
      <stop offset="1" stop-color="#101a3b"/>
    </linearGradient>
    <linearGradient id="markEdgeDark" x1="45" y1="32" x2="153" y2="176" gradientUnits="userSpaceOnUse">
      <stop offset="0" stop-color="#8fa8ff"/>
      <stop offset="1" stop-color="#4f6ef7"/>
    </linearGradient>
    <linearGradient id="wordDark" x1="226" y1="76" x2="506" y2="122" gradientUnits="userSpaceOnUse">
      <stop offset="0" stop-color="#eef4ff"/>
      <stop offset="1" stop-color="#9fb5ff"/>
    </linearGradient>
    <filter id="markShadowDark" x="8" y="14" width="190" height="190" filterUnits="userSpaceOnUse">
      <feDropShadow dx="0" dy="18" stdDeviation="16" flood-color="#4f6ef7" flood-opacity="0.26"/>
    </filter>
  </defs>

  <g filter="url(#markShadowDark)">
    <rect x="24" y="30" width="152" height="152" rx="36" fill="url(#markBgDark)"/>
    <rect x="24.75" y="30.75" width="150.5" height="150.5" rx="35.25" stroke="#8fa8ff" stroke-opacity="0.22" stroke-width="1.5"/>
  </g>

  <path d="M68 58H132C143.05 58 152 66.95 152 78V151H86C74.95 151 66 142.05 66 131V60C66 58.9 66.9 58 68 58Z" fill="#eef4ff" fill-opacity="0.06"/>
  <path d="M72 64H128C136.84 64 144 71.16 144 80V143H90C81.16 143 74 135.84 74 127V66C74 64.9 74.9 64 76 64H72Z" stroke="url(#markEdgeDark)" stroke-opacity="0.52" stroke-width="2"/>
  <path d="M100 48V163" stroke="#b9c8ff" stroke-opacity="0.55" stroke-width="2" stroke-linecap="round"/>
  <path d="M115 82H135" stroke="#90a7ff" stroke-opacity="0.35" stroke-width="2" stroke-linecap="round"/>
  <path d="M115 98H139" stroke="#90a7ff" stroke-opacity="0.26" stroke-width="2" stroke-linecap="round"/>
  <path d="M115 114H132" stroke="#90a7ff" stroke-opacity="0.22" stroke-width="2" stroke-linecap="round"/>
  <path d="M60 143H94" stroke="#90a7ff" stroke-opacity="0.28" stroke-width="2" stroke-linecap="round"/>
  <path d="M62 82H89L61 130H93" stroke="#f5f7ff" stroke-width="7" stroke-linecap="round" stroke-linejoin="round"/>
  <path d="M64 82H88.5L61.5 130H92" stroke="#86a0ff" stroke-opacity="0.22" stroke-width="11" stroke-linecap="round" stroke-linejoin="round"/>

  <text x="226" y="109" font-family="Georgia, 'Times New Roman', serif" font-size="66" font-weight="600" letter-spacing="0.6" fill="url(#wordDark)">Z Reader</text>
  <text x="232" y="148" font-family="system-ui, -apple-system, BlinkMacSystemFont, 'Segoe UI', sans-serif" font-size="14" font-weight="700" letter-spacing="6" fill="#8fa5e8" fill-opacity="0.82">READ QUIETLY</text>
  <path d="M232 166H560" stroke="#6f8cff" stroke-opacity="0.28" stroke-width="1.5" stroke-linecap="round"/>
  <circle cx="232" cy="166" r="2.5" fill="#8fa8ff" fill-opacity="0.55"/>
</svg>
