<svg xmlns="http://www.w3.org/2000/svg" viewBox="0 0 720 220" fill="none">
  <defs>
    <linearGradient id="markBgLight" x1="24" y1="28" x2="174" y2="176" gradientUnits="userSpaceOnUse">
      <stop offset="0" stop-color="#ffffff"/>
      <stop offset="1" stop-color="#edf2ff"/>
    </linearGradient>
    <linearGradient id="markEdgeLight" x1="45" y1="32" x2="153" y2="176" gradientUnits="userSpaceOnUse">
      <stop offset="0" stop-color="#6f8cff"/>
      <stop offset="1" stop-color="#3455d1"/>
    </linearGradient>
    <linearGradient id="wordLight" x1="226" y1="76" x2="506" y2="122" gradientUnits="userSpaceOnUse">
      <stop offset="0" stop-color="#17265f"/>
      <stop offset="1" stop-color="#4f6ef7"/>
    </linearGradient>
    <filter id="markShadowLight" x="8" y="14" width="190" height="190" filterUnits="userSpaceOnUse">
      <feDropShadow dx="0" dy="18" stdDeviation="15" flood-color="#4f6ef7" flood-opacity="0.16"/>
    </filter>
  </defs>

  <g filter="url(#markShadowLight)">
    <rect x="24" y="30" width="152" height="152" rx="36" fill="url(#markBgLight)"/>
    <rect x="24.75" y="30.75" width="150.5" height="150.5" rx="35.25" stroke="#4f6ef7" stroke-opacity="0.18" stroke-width="1.5"/>
  </g>

  <path d="M68 58H132C143.05 58 152 66.95 152 78V151H86C74.95 151 66 142.05 66 131V60C66 58.9 66.9 58 68 58Z" fill="#4f6ef7" fill-opacity="0.06"/>
  <path d="M72 64H128C136.84 64 144 71.16 144 80V143H90C81.16 143 74 135.84 74 127V66C74 64.9 74.9 64 76 64H72Z" stroke="url(#markEdgeLight)" stroke-opacity="0.48" stroke-width="2"/>
  <path d="M100 48V163" stroke="#4f6ef7" stroke-opacity="0.48" stroke-width="2" stroke-linecap="round"/>
  <path d="M115 82H135" stroke="#4f6ef7" stroke-opacity="0.32" stroke-width="2" stroke-linecap="round"/>
  <path d="M115 98H139" stroke="#4f6ef7" stroke-opacity="0.24" stroke-width="2" stroke-linecap="round"/>
  <path d="M115 114H132" stroke="#4f6ef7" stroke-opacity="0.2" stroke-width="2" stroke-linecap="round"/>
  <path d="M60 143H94" stroke="#4f6ef7" stroke-opacity="0.24" stroke-width="2" stroke-linecap="round"/>
  <path d="M62 82H89L61 130H93" stroke="#20337b" stroke-width="7" stroke-linecap="round" stroke-linejoin="round"/>
  <path d="M64 82H88.5L61.5 130H92" stroke="#4f6ef7" stroke-opacity="0.15" stroke-width="11" stroke-linecap="round" stroke-linejoin="round"/>

  <text x="226" y="109" font-family="Georgia, 'Times New Roman', serif" font-size="66" font-weight="600" letter-spacing="0.6" fill="url(#wordLight)">Z Reader</text>
  <text x="232" y="148" font-family="system-ui, -apple-system, BlinkMacSystemFont, 'Segoe UI', sans-serif" font-size="14" font-weight="700" letter-spacing="6" fill="#576fae" fill-opacity="0.84">READ QUIETLY</text>
  <path d="M232 166H560" stroke="#8fa4ec" stroke-opacity="0.34" stroke-width="1.5" stroke-linecap="round"/>
  <circle cx="232" cy="166" r="2.5" fill="#4f6ef7" fill-opacity="0.44"/>
</svg>
