<svg xmlns="http://www.w3.org/2000/svg" viewBox="0 0 720 220" fill="none">
  <defs>
    <linearGradient id="sheetBack" x1="20" y1="14" x2="192" y2="192" gradientUnits="userSpaceOnUse">
      <stop offset="0" stop-color="#f0e6d8"/>
      <stop offset="1" stop-color="#d6c1a4"/>
    </linearGradient>
    <linearGradient id="sheetFront" x1="34" y1="24" x2="184" y2="190" gradientUnits="userSpaceOnUse">
      <stop offset="0" stop-color="#fffdf8"/>
      <stop offset="1" stop-color="#f1e5d1"/>
    </linearGradient>
    <linearGradient id="spine" x1="110" y1="34" x2="110" y2="172" gradientUnits="userSpaceOnUse">
      <stop offset="0" stop-color="#d1b589"/>
      <stop offset="1" stop-color="#b08a5a"/>
    </linearGradient>
    <linearGradient id="titleGrad" x1="262" y1="58" x2="498" y2="146" gradientUnits="userSpaceOnUse">
      <stop offset="0" stop-color="#f5ede1"/>
      <stop offset="1" stop-color="#ddd0be"/>
    </linearGradient>
    <filter id="backShadow" x="12" y="18" width="204" height="182" filterUnits="userSpaceOnUse">
      <feDropShadow dx="0" dy="14" stdDeviation="12" flood-color="#7f6442" flood-opacity="0.18"/>
    </filter>
    <filter id="frontShadow" x="18" y="18" width="192" height="178" filterUnits="userSpaceOnUse">
      <feDropShadow dx="0" dy="7" stdDeviation="7" flood-color="#7f6442" flood-opacity="0.14"/>
    </filter>
  </defs>

  <g>
    <g filter="url(#backShadow)">
      <path d="M38 32H126C143.67 32 158 46.33 158 64V138C158 155.67 143.67 170 126 170H38C20.33 170 6 155.67 6 138V64C6 46.33 20.33 32 38 32Z" fill="url(#sheetBack)"/>
    </g>
    <g filter="url(#frontShadow)">
      <path d="M46 26H138C154.02 26 167 38.98 167 55V145C167 161.02 154.02 174 138 174H46C29.98 174 17 161.02 17 145V55C17 38.98 29.98 26 46 26Z" fill="url(#sheetFront)"/>
      <path d="M46 26H138C154.02 26 167 38.98 167 55V145C167 161.02 154.02 174 138 174H46C29.98 174 17 161.02 17 145V55C17 38.98 29.98 26 46 26Z" stroke="#f9f4eb" stroke-opacity=".82"/>
      <path d="M40 34H132C148.02 34 161 46.98 161 63V153C161 169.02 148.02 182 132 182H40C23.98 182 11 169.02 11 153V63C11 46.98 23.98 34 40 34Z" stroke="#b18d60" stroke-opacity=".22"/>
    </g>

    <path d="M92 38H128" stroke="#8c6d4b" stroke-opacity=".18" stroke-width="1.4" stroke-linecap="round"/>
    <path d="M92 46H120" stroke="#8c6d4b" stroke-opacity=".14" stroke-width="1.4" stroke-linecap="round"/>
    <path d="M92 140H140" stroke="#b49160" stroke-opacity=".34" stroke-width="1.2" stroke-linecap="round"/>
    <text x="92" y="152" text-anchor="middle" font-family="serif" font-size="12" letter-spacing="4" fill="#a07a4f" fill-opacity=".86">READER</text>

    <path d="M92 40V160" stroke="url(#spine)" stroke-width="2.5" stroke-linecap="round"/>
    <path d="M93.5 44V158" stroke="#f9edd7" stroke-width=".8" stroke-linecap="round" opacity=".6"/>

    <path d="M44 58H80" stroke="#7a5e42" stroke-opacity=".16" stroke-width="1.5" stroke-linecap="round"/>
    <path d="M44 66H74" stroke="#7a5e42" stroke-opacity=".12" stroke-width="1.5" stroke-linecap="round"/>
    <path d="M104 58H140" stroke="#7a5e42" stroke-opacity=".18" stroke-width="1.5" stroke-linecap="round"/>
    <path d="M104 66H132" stroke="#7a5e42" stroke-opacity=".12" stroke-width="1.5" stroke-linecap="round"/>
    <text x="62" y="114" text-anchor="middle" font-family="serif" font-size="52" font-weight="700" fill="#614933">Z</text>
    <path d="M104 96H136" stroke="#6f563f" stroke-opacity=".24" stroke-width="1.8" stroke-linecap="round"/>
    <path d="M104 106H130" stroke="#6f563f" stroke-opacity=".18" stroke-width="1.8" stroke-linecap="round"/>
    <path d="M104 124H138" stroke="#6f563f" stroke-opacity=".22" stroke-width="1.8" stroke-linecap="round"/>
  </g>

  <path d="M228 154H548" stroke="#d8c7ae" stroke-opacity=".32" stroke-width="1.2" stroke-linecap="round"/>
  <circle cx="228" cy="154" r="2.4" fill="#c29a68" fill-opacity=".46"/>
  <circle cx="548" cy="154" r="2.4" fill="#c29a68" fill-opacity=".46"/>

  <text x="390" y="102" text-anchor="middle" font-family="serif" font-size="56" font-weight="600" fill="url(#titleGrad)" letter-spacing="1.5">Z Reader</text>
  <text x="390" y="138" text-anchor="middle" font-family="system-ui, -apple-system, sans-serif" font-size="14" font-weight="500" letter-spacing="4" fill="#cdbca3" fill-opacity=".82">A QUIETER DIGITAL LIBRARY</text>
</svg>
